<svg xmlns="http://www.w3.org/2000/svg" viewBox="0 0 1920 1080"><g transform="
          rotate(0 960 540) 
          translate(-0 -0)
          scale(1)
        "><rect width="1920" height="1080" fill="rgb(2, 88, 92)"></rect><g transform="translate(0, 0)"><path fill="rgb(2, 84, 90)" fill-opacity="1" d="M0,117.648L45.714,116.692C91.429,115.736,182.857,113.824,274.286,113.527C365.714,113.231,457.143,114.55,548.571,114.698C640,114.847,731.429,113.824,822.857,101.061C914.286,88.298,1005.714,63.794,1097.143,61.725C1188.571,59.656,1280,80.02,1371.429,73.779C1462.857,67.537,1554.286,34.69,1645.714,32.827C1737.143,30.964,1828.571,60.086,1874.286,74.647L1920,89.208L1920,1080L1874.286,1080C1828.571,1080,1737.143,1080,1645.714,1080C1554.286,1080,1462.857,1080,1371.429,1080C1280,1080,1188.571,1080,1097.143,1080C1005.714,1080,914.286,1080,822.857,1080C731.429,1080,640,1080,548.571,1080C457.143,1080,365.714,1080,274.286,1080C182.857,1080,91.429,1080,45.714,1080L0,1080Z"></path></g><g transform="translate(0, 120)"><path fill="rgb(2, 80, 87)" fill-opacity="1" d="M0,45.364L45.714,39.145C91.429,32.925,182.857,20.485,274.286,26.906C365.714,33.328,457.143,58.61,548.571,63.168C640,67.727,731.429,51.562,822.857,43.471C914.286,35.38,1005.714,35.363,1097.143,47.091C1188.571,58.819,1280,82.292,1371.429,94.899C1462.857,107.506,1554.286,109.246,1645.714,94.892C1737.143,80.537,1828.571,50.088,1874.286,34.863L1920,19.638L1920,960L1874.286,960C1828.571,960,1737.143,960,1645.714,960C1554.286,960,1462.857,960,1371.429,960C1280,960,1188.571,960,1097.143,960C1005.714,960,914.286,960,822.857,960C731.429,960,640,960,548.571,960C457.143,960,365.714,960,274.286,960C182.857,960,91.429,960,45.714,960L0,960Z"></path></g><g transform="translate(0, 240)"><path fill="rgb(2, 76, 85)" fill-opacity="1" d="M0,35.707L45.714,44.769C91.429,53.831,182.857,71.955,274.286,84.777C365.714,97.598,457.143,105.117,548.571,100.171C640,95.226,731.429,77.817,822.857,60.104C914.286,42.391,1005.714,24.374,1097.143,14.455C1188.571,4.535,1280,2.714,1371.429,13.693C1462.857,24.672,1554.286,48.453,1645.714,55.927C1737.143,63.402,1828.571,54.571,1874.286,50.156L1920,45.74L1920,840L1874.286,840C1828.571,840,1737.143,840,1645.714,840C1554.286,840,1462.857,840,1371.429,840C1280,840,1188.571,840,1097.143,840C1005.714,840,914.286,840,822.857,840C731.429,840,640,840,548.571,840C457.143,840,365.714,840,274.286,840C182.857,840,91.429,840,45.714,840L0,840Z"></path></g><g transform="translate(0, 360)"><path fill="rgb(2, 72, 83)" fill-opacity="1" d="M0,17.161L45.714,19.322C91.429,21.483,182.857,25.804,274.286,28.869C365.714,31.935,457.143,33.744,548.571,44.352C640,54.96,731.429,74.367,822.857,87.583C914.286,100.8,1005.714,107.825,1097.143,112.039C1188.571,116.254,1280,117.656,1371.429,109.541C1462.857,101.426,1554.286,83.794,1645.714,69.765C1737.143,55.736,1828.571,45.311,1874.286,40.099L1920,34.886L1920,720L1874.286,720C1828.571,720,1737.143,720,1645.714,720C1554.286,720,1462.857,720,1371.429,720C1280,720,1188.571,720,1097.143,720C1005.714,720,914.286,720,822.857,720C731.429,720,640,720,548.571,720C457.143,720,365.714,720,274.286,720C182.857,720,91.429,720,45.714,720L0,720Z"></path></g><g transform="translate(0, 480)"><path fill="rgb(1, 67, 80)" fill-opacity="1" d="M0,11.568L45.714,26.938C91.429,42.308,182.857,73.048,274.286,90.722C365.714,108.396,457.143,113.004,548.571,115.472C640,117.939,731.429,118.266,822.857,111.427C914.286,104.588,1005.714,90.584,1097.143,81.839C1188.571,73.094,1280,69.608,1371.429,62.486C1462.857,55.364,1554.286,44.606,1645.714,53.103C1737.143,61.601,1828.571,89.355,1874.286,103.232L1920,117.109L1920,600L1874.286,600C1828.571,600,1737.143,600,1645.714,600C1554.286,600,1462.857,600,1371.429,600C1280,600,1188.571,600,1097.143,600C1005.714,600,914.286,600,822.857,600C731.429,600,640,600,548.571,600C457.143,600,365.714,600,274.286,600C182.857,600,91.429,600,45.714,600L0,600Z"></path></g><g transform="translate(0, 600)"><path fill="rgb(1, 63, 78)" fill-opacity="1" d="M0,103.291L45.714,104.285C91.429,105.278,182.857,107.265,274.286,104.96C365.714,102.655,457.143,96.057,548.571,79.596C640,63.136,731.429,36.814,822.857,39.966C914.286,43.118,1005.714,75.745,1097.143,83.157C1188.571,90.57,1280,72.769,1371.429,57.632C1462.857,42.495,1554.286,30.023,1645.714,29.766C1737.143,29.509,1828.571,41.467,1874.286,47.446L1920,53.425L1920,480L1874.286,480C1828.571,480,1737.143,480,1645.714,480C1554.286,480,1462.857,480,1371.429,480C1280,480,1188.571,480,1097.143,480C1005.714,480,914.286,480,822.857,480C731.429,480,640,480,548.571,480C457.143,480,365.714,480,274.286,480C182.857,480,91.429,480,45.714,480L0,480Z"></path></g><g transform="translate(0, 720)"><path fill="rgb(1, 59, 76)" fill-opacity="1" d="M0,117.534L45.714,108.131C91.429,98.728,182.857,79.922,274.286,68.84C365.714,57.758,457.143,54.4,548.571,45.477C640,36.553,731.429,22.064,822.857,14.648C914.286,7.232,1005.714,6.889,1097.143,13.413C1188.571,19.936,1280,33.327,1371.429,51.475C1462.857,69.623,1554.286,92.528,1645.714,100.295C1737.143,108.062,1828.571,100.69,1874.286,97.004L1920,93.318L1920,360L1874.286,360C1828.571,360,1737.143,360,1645.714,360C1554.286,360,1462.857,360,1371.429,360C1280,360,1188.571,360,1097.143,360C1005.714,360,914.286,360,822.857,360C731.429,360,640,360,548.571,360C457.143,360,365.714,360,274.286,360C182.857,360,91.429,360,45.714,360L0,360Z"></path></g><g transform="translate(0, 840)"><path fill="rgb(1, 55, 73)" fill-opacity="1" d="M0,16.396L45.714,32.371C91.429,48.346,182.857,80.296,274.286,85.287C365.714,90.278,457.143,68.31,548.571,63.161C640,58.012,731.429,69.684,822.857,70.403C914.286,71.122,1005.714,60.888,1097.143,62.09C1188.571,63.292,1280,75.93,1371.429,82.077C1462.857,88.224,1554.286,87.881,1645.714,81.985C1737.143,76.089,1828.571,64.64,1874.286,58.915L1920,53.191L1920,240L1874.286,240C1828.571,240,1737.143,240,1645.714,240C1554.286,240,1462.857,240,1371.429,240C1280,240,1188.571,240,1097.143,240C1005.714,240,914.286,240,822.857,240C731.429,240,640,240,548.571,240C457.143,240,365.714,240,274.286,240C182.857,240,91.429,240,45.714,240L0,240Z"></path></g><g transform="translate(0, 960)"><path fill="rgb(1, 51, 71)" fill-opacity="1" d="M0,67.716L45.714,67.661C91.429,67.607,182.857,67.499,274.286,66.321C365.714,65.144,457.143,62.897,548.571,60.926C640,58.954,731.429,57.258,822.857,49.186C914.286,41.115,1005.714,26.668,1097.143,18.042C1188.571,9.415,1280,6.608,1371.429,10.616C1462.857,14.624,1554.286,25.447,1645.714,32.251C1737.143,39.055,1828.571,41.84,1874.286,43.233L1920,44.625L1920,120L1874.286,120C1828.571,120,1737.143,120,1645.714,120C1554.286,120,1462.857,120,1371.429,120C1280,120,1188.571,120,1097.143,120C1005.714,120,914.286,120,822.857,120C731.429,120,640,120,548.571,120C457.143,120,365.714,120,274.286,120C182.857,120,91.429,120,45.714,120L0,120Z"></path></g></g></svg>